HIERARCHY
ROOT Hips
{
	OFFSET 0.000000 71.427986 0.000000
	CHANNELS 6 Xposition Yposition Zposition Xrotation Yrotation Zrotation
	JOINT Pelvis
	{
		OFFSET 0.000000 0.000000 0.000000
		CHANNELS 3 Xrotation Yrotation Zrotation
		JOINT LeftUpLeg
		{
			OFFSET 6.797100 -2.508499 -1.318700
			CHANNELS 3 Xrotation Yrotation Zrotation
			JOINT LeftLeg
			{
				OFFSET 0.069008 -29.241863 0.690200
				CHANNELS 3 Xrotation Yrotation Zrotation
				JOINT LeftFoot
				{
					OFFSET -0.069008 -29.568123 -0.266800
					CHANNELS 3 Xrotation Yrotation Zrotation
					JOINT LeftToeBase
					{
						OFFSET 3.145500 -8.631000 16.059900
						CHANNELS 3 Xrotation Yrotation Zrotation
						End Site
						{
							OFFSET 0.000000 18.501587 0.000000
						}
					}
				}
			}
			JOINT Left_ShortSleeve
			{
				OFFSET 0.265923 -10.480953 1.153800
				CHANNELS 3 Xrotation Yrotation Zrotation
				End Site
				{
					OFFSET 1.725763 19.823879 0.000000
				}
			}
		}
		JOINT RightUpLeg
		{
			OFFSET -6.797100 -2.508499 -1.318700
			CHANNELS 3 Xrotation Yrotation Zrotation
			JOINT RightLeg
			{
				OFFSET -0.082453 -29.241932 0.688000
				CHANNELS 3 Xrotation Yrotation Zrotation
				JOINT RightFoot
				{
					OFFSET 0.082453 -29.568058 -0.264600
					CHANNELS 3 Xrotation Yrotation Zrotation
					JOINT RightToeBase
					{
						OFFSET -3.115300 -8.682800 16.113400
						CHANNELS 3 Xrotation Yrotation Zrotation
						End Site
						{
							OFFSET 0.000000 18.567114 0.000000
						}
					}
				}
			}
			JOINT Right_ShortSleeve
			{
				OFFSET -0.265923 -10.480953 1.153800
				CHANNELS 3 Xrotation Yrotation Zrotation
				End Site
				{
					OFFSET -1.725766 19.823910 0.000000
				}
			}
		}
	}
	JOINT Spine
	{
		OFFSET 0.000000 13.368103 0.470500
		CHANNELS 3 Xrotation Yrotation Zrotation
		JOINT Spine1
		{
			OFFSET 0.147000 13.837402 0.538800
			CHANNELS 3 Xrotation Yrotation Zrotation
			JOINT Spine2
			{
				OFFSET 0.168000 16.242897 -1.435500
				CHANNELS 3 Xrotation Yrotation Zrotation
				JOINT Neck
				{
					OFFSET 0.217200 18.631500 -1.679100
					CHANNELS 3 Xrotation Yrotation Zrotation
					JOINT Head
					{
						OFFSET 0.000000 6.599396 1.385900
						CHANNELS 3 Xrotation Yrotation Zrotation
						JOINT Hat
						{
							OFFSET -0.532200 27.220596 -10.096100
							CHANNELS 3 Xrotation Yrotation Zrotation
							End Site
							{
								OFFSET 0.000000 22.029861 0.000000
							}
						}
						JOINT HairD
						{
							OFFSET -10.777400 17.437393 -1.325900
							CHANNELS 3 Xrotation Yrotation Zrotation
							JOINT HairD1
							{
								OFFSET -3.290299 -11.051193 1.062200
								CHANNELS 3 Xrotation Yrotation Zrotation
								End Site
								{
									OFFSET 0.000000 11.579437 0.000000
								}
							}
						}
						JOINT HairB
						{
							OFFSET -10.777400 17.437393 1.467900
							CHANNELS 3 Xrotation Yrotation Zrotation
							JOINT HairB1
							{
								OFFSET -1.561200 -12.956299 3.590200
								CHANNELS 3 Xrotation Yrotation Zrotation
								End Site
								{
									OFFSET 0.000000 13.534866 0.000000
								}
							}
						}
						JOINT HairA
						{
							OFFSET 9.713100 17.437393 1.467900
							CHANNELS 3 Xrotation Yrotation Zrotation
							JOINT HairA1
							{
								OFFSET 1.561200 -12.956299 3.590200
								CHANNELS 3 Xrotation Yrotation Zrotation
								End Site
								{
									OFFSET 0.000000 13.534866 0.000000
								}
							}
						}
						JOINT HairC
						{
							OFFSET 9.713100 17.437393 -1.325900
							CHANNELS 3 Xrotation Yrotation Zrotation
							JOINT HairC1
							{
								OFFSET 3.290300 -11.051193 1.062200
								CHANNELS 3 Xrotation Yrotation Zrotation
								End Site
								{
									OFFSET 0.000000 11.579437 0.000000
								}
							}
						}
					}
				}
				JOINT LeftShoulder
				{
					OFFSET 5.101800 15.108002 -2.763700
					CHANNELS 3 Xrotation Yrotation Zrotation
					JOINT LeftArm
					{
						OFFSET 9.825497 2.506317 -1.597400
						CHANNELS 3 Xrotation Yrotation Zrotation
						JOINT LeftForeArm
						{
							OFFSET 21.966244 0.000000 0.000000
							CHANNELS 3 Xrotation Yrotation Zrotation
							JOINT LeftHand
							{
								OFFSET 33.879036 0.000000 0.000000
								CHANNELS 3 Xrotation Yrotation Zrotation
								JOINT LeftHandThumb1
								{
									OFFSET 6.715286 -2.359680 3.363841
									CHANNELS 3 Xrotation Yrotation Zrotation
									JOINT LeftHandThumb2
									{
										OFFSET 2.507072 -1.447464 1.447461
										CHANNELS 3 Xrotation Yrotation Zrotation
										JOINT LeftHandThumb3
										{
											OFFSET 2.898338 -1.673355 1.673357
											CHANNELS 3 Xrotation Yrotation Zrotation
											End Site
											{
												OFFSET -0.295959 3.727692 -0.131651
											}
										}
									}
								}
								JOINT LeftHandIndex1
								{
									OFFSET 14.190811 -0.254547 3.840278
									CHANNELS 3 Xrotation Yrotation Zrotation
									JOINT LeftHandIndex2
									{
										OFFSET 3.551727 0.000000 -0.000000
										CHANNELS 3 Xrotation Yrotation Zrotation
										JOINT LeftHandIndex3
										{
											OFFSET 2.894196 0.000000 0.000000
											CHANNELS 3 Xrotation Yrotation Zrotation
											End Site
											{
												OFFSET -1.000603 2.690872 0.366626
											}
										}
									}
								}
								JOINT LeftHandMiddle1
								{
									OFFSET 13.776489 0.000000 0.000000
									CHANNELS 3 Xrotation Yrotation Zrotation
									JOINT LeftHandMiddle2
									{
										OFFSET 3.438232 0.000000 0.000000
										CHANNELS 3 Xrotation Yrotation Zrotation
										JOINT LeftHandMiddle3
										{
											OFFSET 3.691551 0.000000 0.000000
											CHANNELS 3 Xrotation Yrotation Zrotation
											End Site
											{
												OFFSET -1.082298 3.499527 0.457670
											}
										}
									}
								}
								JOINT LeftHandRing1
								{
									OFFSET 13.966164 -0.268127 -3.067488
									CHANNELS 3 Xrotation Yrotation Zrotation
									JOINT LeftHandRing2
									{
										OFFSET 3.162567 0.000000 0.000000
										CHANNELS 3 Xrotation Yrotation Zrotation
										JOINT LeftHandRing3
										{
											OFFSET 3.324348 0.000000 0.000000
											CHANNELS 3 Xrotation Yrotation Zrotation
											End Site
											{
												OFFSET -0.861900 3.184998 0.405154
											}
										}
									}
								}
								JOINT LeftHandPinky1
								{
									OFFSET 13.131393 -0.168503 -5.746925
									CHANNELS 3 Xrotation Yrotation Zrotation
									JOINT LeftHandPinky2
									{
										OFFSET 2.849182 0.000000 0.000000
										CHANNELS 3 Xrotation Yrotation Zrotation
										JOINT LeftHandPinky3
										{
											OFFSET 2.805038 0.000000 0.000000
											CHANNELS 3 Xrotation Yrotation Zrotation
											End Site
											{
												OFFSET -0.882500 2.642609 0.325652
											}
										}
									}
								}
							}
							JOINT Left_Sleeve
							{
								OFFSET 6.592125 -0.646545 0.805568
								CHANNELS 3 Xrotation Yrotation Zrotation
								End Site
								{
									OFFSET -0.000179 20.275787 -0.000000
								}
							}
						}
					}
				}
				JOINT RightShoulder
				{
					OFFSET -5.731700 15.108002 -2.763700
					CHANNELS 3 Xrotation Yrotation Zrotation
					JOINT RightArm
					{
						OFFSET -9.825497 2.506317 -1.597400
						CHANNELS 3 Xrotation Yrotation Zrotation
						JOINT RightForeArm
						{
							OFFSET -21.966242 0.000000 0.000000
							CHANNELS 3 Xrotation Yrotation Zrotation
							JOINT RightHand
							{
								OFFSET -33.879032 0.000000 0.000000
								CHANNELS 3 Xrotation Yrotation Zrotation
								JOINT RightHandThumb1
								{
									OFFSET -6.715286 -2.359680 3.363841
									CHANNELS 3 Xrotation Yrotation Zrotation
									JOINT RightHandThumb2
									{
										OFFSET -2.507072 -1.447464 1.447461
										CHANNELS 3 Xrotation Yrotation Zrotation
										JOINT RightHandThumb3
										{
											OFFSET -2.898338 -1.673355 1.673357
											CHANNELS 3 Xrotation Yrotation Zrotation
											End Site
											{
												OFFSET 0.295959 3.727692 -0.131651
											}
										}
									}
								}
								JOINT RightHandIndex1
								{
									OFFSET -14.190811 -0.254547 3.840278
									CHANNELS 3 Xrotation Yrotation Zrotation
									JOINT RightHandIndex2
									{
										OFFSET -3.551727 0.000000 -0.000000
										CHANNELS 3 Xrotation Yrotation Zrotation
										JOINT RightHandIndex3
										{
											OFFSET -2.894196 0.000000 0.000000
											CHANNELS 3 Xrotation Yrotation Zrotation
											End Site
											{
												OFFSET 1.000603 2.690872 0.366626
											}
										}
									}
								}
								JOINT RightHandMiddle1
								{
									OFFSET -13.776489 0.000000 0.000000
									CHANNELS 3 Xrotation Yrotation Zrotation
									JOINT RightHandMiddle2
									{
										OFFSET -3.438232 0.000000 0.000000
										CHANNELS 3 Xrotation Yrotation Zrotation
										JOINT RightHandMiddle3
										{
											OFFSET -3.691551 0.000000 0.000000
											CHANNELS 3 Xrotation Yrotation Zrotation
											End Site
											{
												OFFSET 1.082298 3.499527 0.457670
											}
										}
									}
								}
								JOINT RightHandRing1
								{
									OFFSET -13.966164 -0.268127 -3.067488
									CHANNELS 3 Xrotation Yrotation Zrotation
									JOINT RightHandRing2
									{
										OFFSET -3.162567 0.000000 0.000000
										CHANNELS 3 Xrotation Yrotation Zrotation
										JOINT RightHandRing3
										{
											OFFSET -3.324348 0.000000 0.000000
											CHANNELS 3 Xrotation Yrotation Zrotation
											End Site
											{
												OFFSET 0.861900 3.184998 0.405154
											}
										}
									}
								}
								JOINT RightHandPinky1
								{
									OFFSET -13.131393 -0.168503 -5.746925
									CHANNELS 3 Xrotation Yrotation Zrotation
									JOINT RightHandPinky2
									{
										OFFSET -2.849182 0.000000 0.000000
										CHANNELS 3 Xrotation Yrotation Zrotation
										JOINT RightHandPinky3
										{
											OFFSET -2.805038 0.000000 0.000000
											CHANNELS 3 Xrotation Yrotation Zrotation
											End Site
											{
												OFFSET 0.882500 2.642609 0.325652
											}
										}
									}
								}
							}
							JOINT Right_Sleeve
							{
								OFFSET -6.592125 -0.646545 0.805568
								CHANNELS 3 Xrotation Yrotation Zrotation
								End Site
								{
									OFFSET 0.000179 20.275787 -0.000000
								}
							}
						}
					}
				}
				JOINT Bind_Right_JacketString
				{
					OFFSET -3.534800 11.969597 7.200700
					CHANNELS 3 Xrotation Yrotation Zrotation
					JOINT Bind_Right_JacketString1
					{
						OFFSET -0.319900 -6.102600 2.794100
						CHANNELS 3 Xrotation Yrotation Zrotation
						End Site
						{
							OFFSET 0.000000 6.719452 0.000000
						}
					}
				}
				JOINT Bind_Left_JacketString
				{
					OFFSET 2.904800 11.969597 7.200700
					CHANNELS 3 Xrotation Yrotation Zrotation
					JOINT Bind_Left_JacketString1
					{
						OFFSET 0.364800 -5.904503 3.186800
						CHANNELS 3 Xrotation Yrotation Zrotation
						End Site
						{
							OFFSET 0.000000 6.719513 0.000000
						}
					}
				}
				JOINT HairE
				{
					OFFSET 5.915200 17.612701 -11.592200
					CHANNELS 3 Xrotation Yrotation Zrotation
					JOINT HairE1
					{
						OFFSET 0.289200 -7.171898 -1.284500
						CHANNELS 3 Xrotation Yrotation Zrotation
						End Site
						{
							OFFSET 0.000000 7.291756 0.000000
						}
					}
				}
				JOINT HairF
				{
					OFFSET -0.864800 17.612701 -11.592200
					CHANNELS 3 Xrotation Yrotation Zrotation
					JOINT HairF1
					{
						OFFSET 0.000000 -14.087097 -2.127501
						CHANNELS 3 Xrotation Yrotation Zrotation
						End Site
						{
							OFFSET 0.000000 14.246841 0.000000
						}
					}
				}
				JOINT HairG
				{
					OFFSET -8.087700 17.612701 -11.592200
					CHANNELS 3 Xrotation Yrotation Zrotation
					JOINT HairG1
					{
						OFFSET -0.293600 -6.081398 -0.910100
						CHANNELS 3 Xrotation Yrotation Zrotation
						End Site
						{
							OFFSET 0.000000 6.156120 0.000000
						}
					}
				}
			}
		}
	}
	JOINT Pouch
	{
		OFFSET 0.000000 4.394501 10.847300
		CHANNELS 3 Xrotation Yrotation Zrotation
		End Site
		{
			OFFSET 0.000000 21.880577 0.000000
		}
	}
	JOINT Bag
	{
		OFFSET -13.229000 4.813004 -0.593300
		CHANNELS 3 Xrotation Yrotation Zrotation
		End Site
		{
			OFFSET 0.000000 21.880577 0.000000
		}
	}
	JOINT OccupyGuyFacialAnim_Joint
	{
		OFFSET 1.000000 -70.206398 -1.655000
		CHANNELS 3 Xrotation Yrotation Zrotation
		End Site
		{
			OFFSET 0.000000 21.880577 0.000000
		}
	}
}
MOTION
Frames: 4
Frame Time: 0.033333
0.013337 64.567337 0.099782 9.541012 -61.607808 10.158421 -0.000000 0.000000 -0.000000 -34.029088 13.172720 22.625767 36.645638 -7.052185 1.221703 -8.818502 -1.957988 -15.294166 -0.000000 -0.000002 -0.000000 0.000002 0.000000 -0.000000 -29.116584 -21.188510 -31.056935 35.640306 3.719450 -4.155383 -13.966198 0.512696 21.622214 0.000000 -0.000000 0.000000 0.000001 0.000000 -0.000001 15.066904 -0.337022 -4.291595 5.872658 0.570509 -2.795108 5.868605 0.649679 -2.850007 -3.644707 1.441778 3.748453 -20.006024 54.833589 2.407293 -0.000000 0.000000 -0.000001 -0.000000 0.000000 -0.000001 -0.000000 0.000000 -0.000001 -0.000000 0.000000 -0.000002 -0.000000 0.000000 -0.000001 -0.000000 0.000000 -0.000002 -0.000000 0.000000 -0.000001 -0.000000 0.000000 -0.000001 -0.000000 0.000000 -0.000001 1.828145 -3.192669 -12.271570 -39.387444 26.350311 -34.911276 0.429408 -46.808359 0.416226 -10.314982 -0.130827 0.363112 40.109876 -15.297131 -0.360561 5.639857 28.097879 11.338839 -0.000000 -0.000000 -0.000000 6.882181 2.840101 -61.140466 8.248040 7.640075 -89.897891 -0.000001 0.000004 0.000001 -2.345569 4.688860 -62.655299 8.754075 9.897104 -87.051266 0.000001 -0.000001 0.000001 -9.042499 10.045700 -60.766281 8.524073 9.508830 -66.893001 0.000001 -0.000002 -0.000000 -17.946978 14.755080 -51.485860 8.868485 8.667066 -84.812003 0.000003 -0.000002 0.000003 0.000003 -0.000002 0.000001 0.631520 7.257349 8.703762 7.936114 -9.680320 53.429916 -22.866340 36.191885 17.963951 -27.375272 10.434555 -17.812461 -2.346140 -6.100517 10.731415 2.363993 -23.806302 -8.771096 -0.000000 0.000000 0.000004 -0.054776 0.532089 0.738696 0.019733 -0.087329 5.078540 0.000002 -0.000001 0.000000 0.348241 -5.918482 2.583777 1.432595 -4.204244 24.052084 -0.000000 0.000001 -0.000002 1.205806 -11.756068 4.154722 1.794859 -3.771892 26.865501 0.000001 0.000002 0.000003 2.126229 -19.166858 11.319907 3.354786 -2.122183 18.828557 0.000001 0.000001 -0.000001 0.000001 -0.000000 -0.000000 0.000001 0.000001 0.000001 -0.000000 -0.000001 0.000000 0.000001 0.000001 0.000000 0.000001 0.000001 0.000000 0.000001 0.000001 0.000001 -0.000000 -0.000001 0.000000 0.000001 0.000001 0.000000 0.000001 0.000001 0.000000 0.000001 0.000001 0.000001 -0.000000 -0.000001 0.000000 -0.000000 0.000000 -0.000000 -0.000000 0.000000 -0.000000 -0.000000 0.000000 -0.000000 
-0.025331 64.527519 0.057216 9.734727 -61.768795 10.318969 -0.000000 -0.000001 0.000000 -34.292553 13.543603 22.815706 36.741674 -3.973952 1.469902 -8.949963 -5.226576 -15.918173 0.000000 0.000000 -0.000000 0.000003 0.000001 0.000001 -29.404951 -21.135780 -31.147951 36.104206 5.810002 -4.021618 -14.134972 -1.263807 20.969425 0.000000 -0.000000 0.000000 0.000003 0.000000 -0.000000 15.030724 -0.320540 -4.331101 5.859652 0.565809 -2.794411 5.856028 0.633774 -2.847588 -3.646784 1.482543 3.725036 -20.165563 54.900876 2.546476 0.000000 -0.000000 -0.000000 0.000000 -0.000000 -0.000000 0.000000 -0.000000 -0.000000 0.000000 -0.000000 -0.000001 0.000000 -0.000000 -0.000000 0.000000 -0.000000 -0.000001 0.000000 -0.000000 -0.000000 0.000000 -0.000000 -0.000000 0.000000 -0.000000 -0.000000 1.815570 -3.157782 -12.319847 -39.360543 26.531684 -34.935782 -0.296875 -46.670519 -0.147274 -10.067700 -0.514188 -0.021741 40.109873 -15.297126 -0.360555 5.639851 28.097873 11.338841 -0.000000 0.000002 -0.000000 6.882180 2.840101 -61.140466 8.248033 7.640073 -89.897891 0.000001 0.000001 -0.000002 -2.345565 4.688860 -62.655299 8.754072 9.897105 -87.051266 0.000004 0.000007 -0.000004 -9.042493 10.045697 -60.766281 8.524069 9.508829 -66.893001 0.000001 -0.000001 -0.000001 -17.946976 14.755083 -51.485864 8.868485 8.667064 -84.812003 -0.000002 -0.000003 0.000002 -0.000000 0.000001 -0.000000 0.626672 7.190717 8.722996 7.723886 -9.564620 53.516284 -21.995089 36.495060 17.411873 -27.412133 10.558037 -16.727893 -2.346140 -6.100517 10.731424 2.385260 -23.905536 -8.802969 -0.000000 0.000000 -0.000002 -0.056234 0.499730 0.955049 0.023425 -0.125738 5.343407 -0.000001 0.000002 0.000001 0.352379 -5.952452 2.809145 1.449539 -4.244953 24.327991 -0.000000 0.000001 -0.000001 1.232129 -11.757022 4.395434 1.815624 -3.814886 27.152242 0.000000 0.000001 -0.000001 2.131456 -19.208534 11.564490 3.365490 -2.168778 19.126384 0.000002 -0.000000 -0.000005 0.000002 -0.000001 0.000000 -0.000001 -0.000001 0.000002 -0.000000 0.000000 0.000001 -0.000001 -0.000001 0.000001 -0.000001 -0.000001 0.000001 -0.000001 -0.000001 0.000002 -0.000000 0.000000 0.000001 -0.000001 -0.000001 0.000001 -0.000001 -0.000001 0.000001 -0.000001 -0.000001 0.000002 -0.000000 0.000000 0.000001 -0.000000 -0.000001 0.000000 -0.000000 -0.000001 0.000000 -0.000000 -0.000001 0.000000 
-0.129989 64.500755 -0.047814 10.050389 -62.236936 10.579411 -0.000000 -0.000000 0.000000 -34.634544 14.519095 23.566494 36.724093 -4.501478 1.424494 -8.972251 -5.444270 -15.856071 0.000000 0.000002 -0.000000 -0.000001 0.000001 -0.000000 -29.893484 -21.207384 -31.154583 36.519321 6.179665 -4.027251 -14.366412 -0.976681 20.690171 -0.000000 0.000000 0.000000 0.000001 -0.000001 0.000000 14.924727 -0.275659 -4.421824 5.822061 0.547210 -2.791573 5.819942 0.591512 -2.841196 -3.650795 1.601086 3.657591 -20.479648 55.092733 2.912629 0.000001 0.000000 -0.000001 0.000001 0.000000 -0.000001 0.000001 0.000000 -0.000000 0.000001 0.000000 -0.000001 0.000001 0.000000 -0.000000 0.000001 0.000000 -0.000001 0.000001 0.000000 -0.000000 0.000001 0.000000 -0.000001 0.000001 0.000000 -0.000001 1.780196 -3.059823 -12.457422 -39.166729 26.797918 -34.828873 -0.620235 -46.280860 -0.400477 -10.042510 -1.106883 -0.648371 40.109876 -15.297131 -0.360553 5.639852 28.097879 11.338841 0.000000 -0.000000 0.000002 6.882188 2.840099 -61.140466 8.248036 7.640077 -89.897891 0.000001 0.000001 -0.000002 -2.345567 4.688858 -62.655292 8.754075 9.897102 -87.051273 0.000002 -0.000001 -0.000001 -9.042493 10.045696 -60.766281 8.524072 9.508829 -66.893001 -0.000001 0.000001 -0.000002 -17.946973 14.755082 -51.485860 8.868485 8.667065 -84.811996 -0.000003 0.000000 -0.000002 0.000000 0.000003 -0.000001 0.613669 7.003749 8.777304 7.225001 -9.158929 53.649493 -19.858871 37.216731 16.043956 -27.421855 10.211070 -15.684148 -2.346139 -6.100517 10.731420 2.441176 -24.189089 -8.893111 0.000000 -0.000001 0.000000 -0.059074 0.408178 1.564213 0.035684 -0.233631 6.089322 0.000000 -0.000000 0.000002 0.358796 -6.048616 3.443060 1.498372 -4.359361 25.105224 0.000001 0.000000 -0.000003 1.306610 -11.763280 5.073208 1.875419 -3.935376 27.959857 -0.000002 -0.000001 -0.000001 2.147518 -19.325781 12.253605 3.397190 -2.299663 19.965075 -0.000001 -0.000000 0.000001 -0.000000 -0.000001 0.000001 -0.000002 -0.000002 0.000001 -0.000001 -0.000000 -0.000001 -0.000002 -0.000002 0.000000 -0.000002 -0.000002 0.000000 -0.000002 -0.000002 0.000001 -0.000001 -0.000000 -0.000000 -0.000002 -0.000002 0.000000 -0.000002 -0.000002 0.000000 -0.000002 -0.000002 0.000001 -0.000001 -0.000000 -0.000000 -0.000000 -0.000000 0.000000 -0.000000 -0.000000 0.000000 -0.000000 -0.000000 0.000000 
-0.290604 64.606895 -0.179140 10.479951 -62.963621 10.937962 0.000000 0.000001 -0.000000 -34.660936 16.042554 24.492256 35.922178 -5.131506 1.345656 -8.677778 -5.760658 -15.794602 0.000000 0.000000 -0.000000 -0.000002 0.000002 -0.000000 -30.175479 -21.542507 -31.031896 36.261990 6.724847 -3.959700 -14.289104 -0.481020 20.271146 0.000000 0.000000 0.000000 -0.000001 0.000000 0.000000 14.752536 -0.216847 -4.558858 5.762349 0.517699 -2.787094 5.762952 0.530652 -2.831961 -3.658499 1.788987 3.553057 -20.924448 55.386223 3.479195 -0.000000 0.000000 -0.000000 -0.000000 0.000000 -0.000000 -0.000000 0.000000 0.000000 -0.000000 0.000000 -0.000001 -0.000000 -0.000000 -0.000000 -0.000000 0.000000 -0.000001 -0.000000 -0.000000 -0.000000 -0.000000 0.000000 -0.000000 -0.000000 0.000000 -0.000000 1.725688 -2.908909 -12.673799 -38.997457 27.231512 -34.563677 -0.413473 -45.677737 -0.248202 -10.186901 -1.846664 -1.595268 40.109876 -15.297129 -0.360560 5.639851 28.097877 11.338843 -0.000000 0.000001 -0.000001 6.882184 2.840099 -61.140466 8.248034 7.640076 -89.897891 0.000001 0.000000 -0.000002 -2.345564 4.688859 -62.655299 8.754078 9.897101 -87.051266 0.000002 0.000002 -0.000004 -9.042490 10.045697 -60.766281 8.524074 9.508829 -66.892994 0.000000 0.000001 -0.000001 -17.946978 14.755082 -51.485864 8.868487 8.667064 -84.812003 -0.000000 0.000001 -0.000002 0.000006 0.000002 -0.000003 0.594949 6.715108 8.861742 6.122094 -9.008476 53.774387 -23.143466 36.546669 18.250009 -21.607968 9.556259 -14.569162 -2.346140 -6.100516 10.731418 2.528027 -24.633646 -9.034190 -0.000000 -0.000001 -0.000000 -0.052426 0.266271 2.508219 0.060252 -0.400074 7.245412 0.000001 -0.000001 0.000000 0.370756 -6.197936 4.425802 1.577413 -4.535265 26.310246 0.000001 0.000002 0.000001 1.422534 -11.771622 6.123855 1.971725 -4.120536 29.212084 0.000002 -0.000000 0.000001 2.176075 -19.506979 13.322937 3.451295 -2.502022 21.265186 0.000001 0.000001 0.000001 0.000001 0.000001 -0.000002 -0.000000 0.000000 0.000002 0.000001 0.000000 0.000001 -0.000000 0.000000 0.000001 -0.000000 0.000000 0.000001 -0.000000 0.000000 0.000002 0.000001 0.000000 0.000001 -0.000000 0.000000 0.000001 -0.000000 0.000000 0.000001 -0.000000 0.000000 0.000002 0.000001 0.000000 0.000001 0.000000 0.000001 -0.000000 0.000000 0.000001 -0.000000 0.000000 0.000001 -0.000000 
